<?xml version="1.0" encoding="UTF-8"?>
<!DOCTYPE svg PUBLIC "-//W3C//DTD SVG 1.1//EN" "http://www.w3.org/Graphics/SVG/1.1/DTD/svg11.dtd">
<svg xmlns="http://www.w3.org/2000/svg" version="1.1" width="512px" height="512px" style="shape-rendering:geometricPrecision; text-rendering:geometricPrecision; image-rendering:optimizeQuality; fill-rule:evenodd; clip-rule:evenodd" xmlns:xlink="http://www.w3.org/1999/xlink">
<g><path style="opacity:1" fill="#0182fb" d="M 67.5,-0.5 C 81.8333,-0.5 96.1667,-0.5 110.5,-0.5C 106.521,1.31481 103.688,4.31481 102,8.5C 101.5,21.8292 101.333,35.1625 101.5,48.5C 87.1667,48.5 72.8333,48.5 58.5,48.5C 58.3335,36.1622 58.5001,23.8288 59,11.5C 59.6589,5.81306 62.4922,1.81306 67.5,-0.5 Z"/></g>
<g><path style="opacity:1" fill="#0692fb" d="M 110.5,-0.5 C 221.5,-0.5 332.5,-0.5 443.5,-0.5C 448.526,1.86669 451.36,5.86669 452,11.5C 452.5,23.8288 452.667,36.1622 452.5,48.5C 335.5,48.5 218.5,48.5 101.5,48.5C 101.333,35.1625 101.5,21.8292 102,8.5C 103.688,4.31481 106.521,1.31481 110.5,-0.5 Z"/></g>
<g><path style="opacity:1" fill="#22b082" d="M 83.5,17.5 C 93.197,17.72 95.8636,22.22 91.5,31C 82.7319,33.862 78.8986,30.6953 80,21.5C 81.3756,20.2949 82.5423,18.9616 83.5,17.5 Z"/></g>
<g><path style="opacity:1" fill="#f8990e" d="M 107.5,17.5 C 117.23,17.7914 119.896,22.2914 115.5,31C 106.894,33.7322 103.061,30.5655 104,21.5C 105.376,20.2949 106.542,18.9616 107.5,17.5 Z"/></g>
<g><path style="opacity:1" fill="#fb6470" d="M 132.5,17.5 C 140.385,18.0482 143.052,22.0482 140.5,29.5C 133.948,34.2195 129.614,32.7195 127.5,25C 127.782,21.5559 129.448,19.0559 132.5,17.5 Z"/></g>
<g><path style="opacity:1" fill="#5fb6fe" d="M 393.5,17.5 C 404.172,17.3335 414.839,17.5002 425.5,18C 430.145,20.0246 431.645,23.5246 430,28.5C 429.5,30.3333 428.333,31.5 426.5,32C 415.5,32.6667 404.5,32.6667 393.5,32C 390.634,30.6071 389.301,28.2738 389.5,25C 389.603,23.4385 389.937,21.9385 390.5,20.5C 391.77,19.7124 392.77,18.7124 393.5,17.5 Z"/></g>
<g><path style="opacity:1" fill="#d7ebfd" d="M 58.5,48.5 C 72.8333,48.5 87.1667,48.5 101.5,48.5C 218.5,48.5 335.5,48.5 452.5,48.5C 452.5,48.8333 452.5,49.1667 452.5,49.5C 335.5,49.5 218.5,49.5 101.5,49.5C 101.5,65.1667 101.5,80.8333 101.5,96.5C 99.9826,96.5106 98.8159,97.1772 98,98.5C 97.3333,107.167 97.3333,115.833 98,124.5C 98.7202,126.056 99.8868,127.056 101.5,127.5C 101.169,158.005 101.502,188.338 102.5,218.5C 101.878,219.627 101.045,220.627 100,221.5C 99.3333,234.833 99.3333,248.167 100,261.5C 101.045,262.373 101.878,263.373 102.5,264.5C 101.506,273.986 101.173,283.652 101.5,293.5C 96.1667,297.833 96.1667,302.167 101.5,306.5C 101.5,310.833 101.5,315.167 101.5,319.5C 96.1667,324.167 96.1667,328.833 101.5,333.5C 101.5,346.5 101.5,359.5 101.5,372.5C 97.6856,375.152 96.5189,378.819 98,383.5C 99.0391,384.71 100.206,385.71 101.5,386.5C 101.831,410.006 101.498,433.339 100.5,456.5C 84.3957,444.398 70.729,430.065 59.5,413.5C 59.8328,315.332 59.4994,217.332 58.5,119.5C 58.5,95.8333 58.5,72.1667 58.5,48.5 Z"/></g>
<g><path style="opacity:0.998" fill="#e9f5fe" d="M 452.5,49.5 C 452.5,72.8333 452.5,96.1667 452.5,119.5C 451.501,217.332 451.167,315.332 451.5,413.5C 413.567,464.164 363.234,495.664 300.5,508C 292.678,509.099 285.011,510.266 277.5,511.5C 262.833,511.5 248.167,511.5 233.5,511.5C 183.478,506.612 139.144,488.279 100.5,456.5C 101.498,433.339 101.831,410.006 101.5,386.5C 203.763,387.664 306.097,387.831 408.5,387C 413.224,384.565 414.724,380.731 413,375.5C 412.167,374.667 411.333,373.833 410.5,373C 307.501,372.5 204.501,372.333 101.5,372.5C 101.5,359.5 101.5,346.5 101.5,333.5C 111.525,334.269 114.525,330.102 110.5,321C 107.649,319.711 104.649,319.211 101.5,319.5C 101.5,315.167 101.5,310.833 101.5,306.5C 107.848,308.489 111.514,306.156 112.5,299.5C 110.93,293.749 107.263,291.749 101.5,293.5C 101.173,283.652 101.506,273.986 102.5,264.5C 103.473,264.987 104.473,265.487 105.5,266C 116.495,266.5 127.495,266.667 138.5,266.5C 154.837,266.667 171.17,266.5 187.5,266C 191,265.167 193.167,263 194,259.5C 194.667,247.167 194.667,234.833 194,222.5C 193.215,220.714 192.049,219.214 190.5,218C 182.731,214.033 175.397,209.533 168.5,204.5C 178.755,195.526 182.921,184.192 181,170.5C 177.587,158.921 170.42,150.588 159.5,145.5C 136.599,139.366 121.099,147.366 113,169.5C 110.236,183.48 114.069,195.146 124.5,204.5C 117.542,209.652 110.208,214.319 102.5,218.5C 101.502,188.338 101.169,158.005 101.5,127.5C 109.889,127.803 118.222,127.47 126.5,126.5C 127.192,125.975 127.692,125.308 128,124.5C 128.816,115.588 128.65,106.755 127.5,98C 118.942,96.5592 110.276,96.0592 101.5,96.5C 101.5,80.8333 101.5,65.1667 101.5,49.5C 218.5,49.5 335.5,49.5 452.5,49.5 Z"/></g>
<g><path style="opacity:1" fill="#24b27f" d="M 386.5,151.5 C 386.5,146.833 386.5,142.167 386.5,137.5C 382.818,137.665 379.152,137.499 375.5,137C 375,136.5 374.5,136 374,135.5C 373.667,127.833 373.333,120.167 373,112.5C 372.5,112 372,111.5 371.5,111C 363.588,110.817 355.754,110.317 348,109.5C 347.501,105.514 347.334,101.514 347.5,97.5C 350.579,97.7399 353.579,97.4066 356.5,96.5C 357.331,88.8549 357.831,81.1883 358,73.5C 358.5,73 359,72.5 359.5,72C 368.745,71.183 377.911,71.3497 387,72.5C 387.333,80.1667 387.667,87.8333 388,95.5C 388.5,96 389,96.5 389.5,97C 397.412,97.1834 405.246,97.6834 413,98.5C 413.667,107.167 413.667,115.833 413,124.5C 412.5,125 412,125.5 411.5,126C 404.167,126.333 396.833,126.667 389.5,127C 389,127.5 388.5,128 388,128.5C 387.829,136.344 387.329,144.011 386.5,151.5 Z"/></g>
<g><path style="opacity:1" fill="#1daf7a" d="M 101.5,96.5 C 110.276,96.0592 118.942,96.5592 127.5,98C 128.65,106.755 128.816,115.588 128,124.5C 127.692,125.308 127.192,125.975 126.5,126.5C 118.222,127.47 109.889,127.803 101.5,127.5C 99.8868,127.056 98.7202,126.056 98,124.5C 97.3333,115.833 97.3333,107.167 98,98.5C 98.8159,97.1772 99.9826,96.5106 101.5,96.5 Z"/></g>
<g><path style="opacity:1" fill="#1eaf7a" d="M 139.5,96.5 C 148.173,96.3336 156.84,96.5002 165.5,97C 166,97.5 166.5,98 167,98.5C 167.817,107.745 167.65,116.911 166.5,126C 157.602,127.609 148.602,127.942 139.5,127C 138.667,126.167 137.833,125.333 137,124.5C 136.333,116.167 136.333,107.833 137,99.5C 137.698,98.3094 138.531,97.3094 139.5,96.5 Z"/></g>
<g><path style="opacity:1" fill="#65b9ff" d="M 191.5,96.5 C 191.217,97.2891 190.717,97.9558 190,98.5C 189.333,107.5 189.333,116.5 190,125.5C 190.717,126.044 191.217,126.711 191.5,127.5C 177.894,130.561 172.561,125.227 175.5,111.5C 173.013,98.3227 178.346,93.3227 191.5,96.5 Z"/></g>
<g><path style="opacity:1" fill="#8cc9fe" d="M 191.5,96.5 C 204.909,93.4094 210.242,98.576 207.5,112C 210.242,125.424 204.909,130.591 191.5,127.5C 191.217,126.711 190.717,126.044 190,125.5C 189.333,116.5 189.333,107.5 190,98.5C 190.717,97.9558 191.217,97.2891 191.5,96.5 Z"/></g>
<g><path style="opacity:1" fill="#0ca76e" d="M 347.5,97.5 C 347.334,101.514 347.501,105.514 348,109.5C 355.754,110.317 363.588,110.817 371.5,111C 372,111.5 372.5,112 373,112.5C 373.333,120.167 373.667,127.833 374,135.5C 374.5,136 375,136.5 375.5,137C 379.152,137.499 382.818,137.665 386.5,137.5C 386.5,142.167 386.5,146.833 386.5,151.5C 377.325,152.822 367.992,152.822 358.5,151.5C 357.699,143.882 357.199,136.216 357,128.5C 356.5,128 356,127.5 355.5,127C 348.167,126.667 340.833,126.333 333.5,126C 333,125.5 332.5,125 332,124.5C 331.196,115.785 331.363,107.118 332.5,98.5C 337.456,97.5059 342.456,97.1725 347.5,97.5 Z"/></g>
<g><path style="opacity:0.989" fill="#fdd2a4" d="M 58.5,119.5 C 59.4994,217.332 59.8328,315.332 59.5,413.5C 35.0543,381.583 19.5543,345.583 13,305.5C 3.0926,237.164 18.2593,175.164 58.5,119.5 Z"/></g>
<g><path style="opacity:0.989" fill="#fdd2a4" d="M 452.5,119.5 C 499.592,186.148 512.258,258.981 490.5,338C 482.05,365.739 469.05,390.906 451.5,413.5C 451.167,315.332 451.501,217.332 452.5,119.5 Z"/></g>
<g><path style="opacity:1" fill="#0382fc" d="M 159.5,145.5 C 138.516,160.05 134.683,178.383 148,200.5C 152.071,203.75 155.904,207.083 159.5,210.5C 155.006,212.112 150.339,212.778 145.5,212.5C 137.561,212.189 130.561,209.522 124.5,204.5C 114.069,195.146 110.236,183.48 113,169.5C 121.099,147.366 136.599,139.366 159.5,145.5 Z"/></g>
<g><path style="opacity:1" fill="#0993fc" d="M 159.5,145.5 C 170.42,150.588 177.587,158.921 181,170.5C 182.921,184.192 178.755,195.526 168.5,204.5C 165.672,206.748 162.672,208.748 159.5,210.5C 155.904,207.083 152.071,203.75 148,200.5C 134.683,178.383 138.516,160.05 159.5,145.5 Z"/></g>
<g><path style="opacity:1" fill="#b4dafe" d="M 221.5,187.5 C 242.503,187.333 263.503,187.5 284.5,188C 290.241,193.558 289.574,198.225 282.5,202C 262.5,202.667 242.5,202.667 222.5,202C 216.292,197.58 215.958,192.747 221.5,187.5 Z"/></g>
<g><path style="opacity:1" fill="#8ccafe" d="M 304.5,187.5 C 339.502,187.333 374.502,187.5 409.5,188C 414.986,193.081 414.653,197.748 408.5,202C 374.167,202.667 339.833,202.667 305.5,202C 299.281,197.533 298.948,192.699 304.5,187.5 Z"/></g>
<g><path style="opacity:1" fill="#0793fc" d="M 124.5,204.5 C 130.561,209.522 137.561,212.189 145.5,212.5C 140.783,214.62 136.616,217.62 133,221.5C 132.333,234.5 132.333,247.5 133,260.5C 134.36,263.023 136.193,265.023 138.5,266.5C 127.495,266.667 116.495,266.5 105.5,266C 104.473,265.487 103.473,264.987 102.5,264.5C 101.878,263.373 101.045,262.373 100,261.5C 99.3333,248.167 99.3333,234.833 100,221.5C 101.045,220.627 101.878,219.627 102.5,218.5C 110.208,214.319 117.542,209.652 124.5,204.5 Z"/></g>
<g><path style="opacity:1" fill="#27a6fd" d="M 168.5,204.5 C 175.397,209.533 182.731,214.033 190.5,218C 192.049,219.214 193.215,220.714 194,222.5C 194.667,234.833 194.667,247.167 194,259.5C 193.167,263 191,265.167 187.5,266C 171.17,266.5 154.837,266.667 138.5,266.5C 136.193,265.023 134.36,263.023 133,260.5C 132.333,247.5 132.333,234.5 133,221.5C 136.616,217.62 140.783,214.62 145.5,212.5C 150.339,212.778 155.006,212.112 159.5,210.5C 162.672,208.748 165.672,206.748 168.5,204.5 Z"/></g>
<g><path style="opacity:1" fill="#b3dafe" d="M 221.5,219.5 C 242.169,219.333 262.836,219.5 283.5,220C 288.434,222.665 289.601,226.498 287,231.5C 285.829,232.893 284.329,233.727 282.5,234C 262.5,234.667 242.5,234.667 222.5,234C 216.292,229.58 215.958,224.747 221.5,219.5 Z"/></g>
<g><path style="opacity:1" fill="#8bc9fe" d="M 304.5,219.5 C 339.168,219.333 373.835,219.5 408.5,220C 413.626,222.553 414.793,226.386 412,231.5C 411.097,232.701 409.931,233.535 408.5,234C 374.167,234.667 339.833,234.667 305.5,234C 299.292,229.58 298.958,224.747 304.5,219.5 Z"/></g>
<g><path style="opacity:1" fill="#b3dafe" d="M 221.5,251.5 C 241.836,251.333 262.169,251.5 282.5,252C 288.292,254.09 289.792,257.924 287,263.5C 286.097,264.701 284.931,265.535 283.5,266C 262.833,266.667 242.167,266.667 221.5,266C 216.202,261.092 216.202,256.258 221.5,251.5 Z"/></g>
<g><path style="opacity:1" fill="#8ac9fe" d="M 304.5,251.5 C 339.168,251.333 373.835,251.5 408.5,252C 415.167,256.667 415.167,261.333 408.5,266C 373.833,266.667 339.167,266.667 304.5,266C 299.202,261.092 299.202,256.258 304.5,251.5 Z"/></g>
<g><path style="opacity:1" fill="#65b8ff" d="M 221.5,290.5 C 284.168,290.333 346.834,290.5 409.5,291C 415.25,296.508 414.583,301.175 407.5,305C 345.833,305.667 284.167,305.667 222.5,305C 216.27,300.485 215.937,295.652 221.5,290.5 Z"/></g>
<g><path style="opacity:1" fill="#fd6873" d="M 101.5,306.5 C 96.1667,302.167 96.1667,297.833 101.5,293.5C 107.263,291.749 110.93,293.749 112.5,299.5C 111.514,306.156 107.848,308.489 101.5,306.5 Z"/></g>
<g><path style="opacity:1" fill="#b5dbfe" d="M 128.5,292.5 C 134.629,291.555 138.296,294.055 139.5,300C 138.296,306.106 134.629,308.439 128.5,307C 123.214,302.169 123.214,297.335 128.5,292.5 Z"/></g>
<g><path style="opacity:1" fill="#b4dafe" d="M 155.5,292.5 C 165.23,292.791 167.896,297.291 163.5,306C 154.319,309.325 150.485,306.158 152,296.5C 153.376,295.295 154.542,293.962 155.5,292.5 Z"/></g>
<g><path style="opacity:1" fill="#fd6974" d="M 182.5,292.5 C 190.201,292.362 193.367,296.029 192,303.5C 186.837,309.062 182.171,308.729 178,302.5C 177.077,298.017 178.577,294.683 182.5,292.5 Z"/></g>
<g><path style="opacity:1" fill="#8ccafe" d="M 101.5,319.5 C 104.649,319.211 107.649,319.711 110.5,321C 114.525,330.102 111.525,334.269 101.5,333.5C 96.1667,328.833 96.1667,324.167 101.5,319.5 Z"/></g>
<g><path style="opacity:1" fill="#64b8ff" d="M 128.5,319.5 C 135.669,318.513 139.169,321.513 139,328.5C 135.797,333.916 131.464,334.916 126,331.5C 123.523,326.669 124.356,322.669 128.5,319.5 Z"/></g>
<g><path style="opacity:1" fill="#fd6772" d="M 154.5,319.5 C 165.818,318.99 168.485,323.49 162.5,333C 151.105,333.803 148.439,329.303 154.5,319.5 Z"/></g>
<g><path style="opacity:1" fill="#8ccafe" d="M 181.5,319.5 C 191.525,318.731 194.525,322.898 190.5,332C 181.961,335.451 177.794,332.618 178,323.5C 179.376,322.295 180.542,320.962 181.5,319.5 Z"/></g>
<g><path style="opacity:1" fill="#63b8ff" d="M 221.5,322.5 C 284.168,322.333 346.834,322.5 409.5,323C 415.232,328.608 414.565,333.274 407.5,337C 345.833,337.667 284.167,337.667 222.5,337C 216.281,332.533 215.948,327.699 221.5,322.5 Z"/></g>
<g><path style="opacity:1" fill="#b4dafe" d="M 101.5,372.5 C 204.501,372.333 307.501,372.5 410.5,373C 411.333,373.833 412.167,374.667 413,375.5C 414.724,380.731 413.224,384.565 408.5,387C 306.097,387.831 203.763,387.664 101.5,386.5C 100.206,385.71 99.0391,384.71 98,383.5C 96.5189,378.819 97.6856,375.152 101.5,372.5 Z"/></g>
<g><path style="opacity:1" fill="#0aa76d" d="M 230.5,421.5 C 224.436,424.978 222.103,430.312 223.5,437.5C 220.15,437.335 216.817,437.502 213.5,438C 207.271,442.171 206.938,446.837 212.5,452C 216.152,452.499 219.818,452.665 223.5,452.5C 223.234,456.605 223.734,460.605 225,464.5C 226.214,466.049 227.714,467.215 229.5,468C 216.171,468.5 202.837,468.667 189.5,468.5C 185.98,467.817 183.48,465.817 182,462.5C 181.333,450.833 181.333,439.167 182,427.5C 183.167,425 185,423.167 187.5,422C 201.829,421.5 216.163,421.333 230.5,421.5 Z"/></g>
<g><path style="opacity:1" fill="#23b27f" d="M 230.5,421.5 C 261.896,421.022 293.229,421.522 324.5,423C 326.378,424.543 327.878,426.376 329,428.5C 329.667,439.5 329.667,450.5 329,461.5C 328.214,464.583 326.381,466.749 323.5,468C 285.831,468.319 248.164,468.819 210.5,469.5C 203.325,469.5 196.325,469.166 189.5,468.5C 202.837,468.667 216.171,468.5 229.5,468C 227.714,467.215 226.214,466.049 225,464.5C 223.734,460.605 223.234,456.605 223.5,452.5C 248.502,452.667 273.502,452.5 298.5,452C 304.062,446.837 303.729,442.171 297.5,438C 272.836,437.5 248.169,437.333 223.5,437.5C 222.103,430.312 224.436,424.978 230.5,421.5 Z"/></g>
<g><path style="opacity:1" fill="#56bd91" d="M 223.5,437.5 C 248.169,437.333 272.836,437.5 297.5,438C 303.729,442.171 304.062,446.837 298.5,452C 273.502,452.5 248.502,452.667 223.5,452.5C 219.818,452.665 216.152,452.499 212.5,452C 206.938,446.837 207.271,442.171 213.5,438C 216.817,437.502 220.15,437.335 223.5,437.5 Z"/></g>
</svg>
